<svg xmlns="http://www.w3.org/2000/svg" width="320" height="240" viewBox="0 0 320 240"><defs><linearGradient id="g" x1="0" y1="0" x2="1" y2="1"><stop stop-color="#fff7d8"/><stop offset="1" stop-color="#ffffff"/></linearGradient><filter id="s" x="-20%" y="-20%" width="140%" height="140%"><feDropShadow dx="0" dy="16" stdDeviation="18" flood-color="#ffd86b" flood-opacity=".18"/></filter></defs><rect width="320" height="240" rx="44" fill="url(#g)"/><circle cx="258" cy="42" r="54" fill="#ffd86b" opacity=".12"/><circle cx="50" cy="202" r="44" fill="#ffd86b" opacity=".10"/><g filter="url(#s)"><ellipse cx="160" cy="154" rx="92" ry="36" fill="#fff"/><path d="M78 126h164c-8 54-42 86-82 86s-74-32-82-86Z" fill="#fff"/><path d="M94 126c14-32 43-51 66-51s52 19 66 51H94Z" fill="#ffd86b" opacity=".16"/><text x="160" y="126" text-anchor="middle" dominant-baseline="middle" font-size="72">🥣</text></g><path d="M88 62c27-18 53-18 78 0" stroke="#ffd86b" stroke-width="10" stroke-linecap="round" opacity=".24"/><path d="M184 62c18-12 36-12 54 0" stroke="#ffd86b" stroke-width="10" stroke-linecap="round" opacity=".18"/></svg>